# xmcd
#
# Track frame offsets:
#	150
#	11676
#	40035
#	62051
#	81301
#	110623
#	138729
#	171145
#	197147
#
# Disc length: 3227 seconds
#
# Revision: 0
# Processed by: cddbd v1.5.2PL0 Copyright (c) Steve Scherf et al.
# Submitted via: EasyCDDAExtractor 4.6.9.1
#
DISCID=7b0c9909
DTITLE=Moving Gelatine Plates - Removing
DYEAR=2006
DGENRE=
TTITLE0=Removing
TTITLE1=Like a Flower
TTITLE2=Enigme
TTITLE3=Comme Avant
TTITLE4=Breakdown
TTITLE5=Nico
TTITLE6=Bellidor
TTITLE7=Waiting For The Rain
TTITLE8=Theo
EXTD=
EXTT0=
EXTT1=
EXTT2=
EXTT3=
EXTT4=
EXTT5=
EXTT6=
EXTT7=
EXTT8=
PLAYORDER=
